<?xml version="1.0" encoding="utf-8"?>
<!-- Generator: Adobe Illustrator 24.0.0, SVG Export Plug-In . SVG Version: 6.00 Build 0)  -->
<svg version="1.1" id="Layer_1" xmlns="http://www.w3.org/2000/svg" xmlns:xlink="http://www.w3.org/1999/xlink" x="0px" y="0px"
	 viewBox="0 0 1080 1080" style="enable-background:new 0 0 1080 1080;" xml:space="preserve">
<style type="text/css">
	.st0{fill:#6BCAD0;}
	.st1{fill:#6BC9D0;}
	.st2{fill:#F6A3A0;}
	.st3{fill:#F9B5B0;}
	.st4{fill:#020202;}
	.st5{fill:#ED2453;}
	.st6{fill:#ED2553;}
	.st7{fill:#ED2653;}
	.st8{fill:#6CC9CF;}
</style>
<g>
	<path class="st0" d="M697.9,81.69c-1.14,11.48-0.11,22.86,1.64,34.21c0.15,0.95,0.26,1.91,0.38,2.87
		c-0.82,0.02-1.63,0.06-2.45,0.06c-36.31,0-72.61,0-108.92,0c-3.17,0-3.17,0-3.17,3.2c0,163.2,0,326.41,0,489.61
		c0,32,0.03,64-0.05,96c-0.03,10.28-0.18,20.55-1.43,30.79c-1.68,13.76-5.74,26.71-12.11,38.97c-11.74,22.62-28.3,40.63-50.89,52.69
		c-14.24,7.6-29.64,12.04-45.39,15.24c-13.7,2.78-27.52,3.41-41.35,1.26c-25.87-4.03-48.7-15.04-69.19-31.06
		c-7.04-5.51-13.31-11.91-18.59-19.2c4.64,2,9.23,4.13,13.93,5.97c12.27,4.79,24.93,7.82,38.16,8.55
		c16.49,0.9,32.46-1.77,48.18-6.45c10.08-3,20.01-6.4,29.25-11.5c18.46-10.2,33.07-24.45,44.31-42.25
		c7.06-11.17,12.41-23.06,15.48-35.95c1.9-7.99,2.85-16.1,3.38-24.27c0.59-9.16,0.46-18.33,0.46-27.5c0-192.56,0-385.12,0-577.67
		c0-1.19,0.01-2.39,0.02-3.58C592.33,81.69,645.11,81.69,697.9,81.69z"/>
	<path class="st1" d="M117.27,676.95c0.51-0.47,0.37-1.1,0.39-1.68c0.59-17.22,2.92-34.21,6.65-51.02
		c4.99-22.5,12.29-44.2,23.21-64.56c9.39-17.52,20.54-33.86,33.32-49.1c7.43-8.86,15.27-17.33,23.64-25.3
		c16.64-15.84,35.01-29.34,55.02-40.65c19.01-10.75,39.05-19.1,59.8-25.77c15.81-5.08,31.96-8.78,48.45-10.99
		c16.05-2.15,32.16-3,48.32-2.51c9.8,0.3,19.59,1.08,29.31,2.53c1.05,0.16,1.6,0.38,1.6,1.59c-0.07,10.81-0.1,21.62-0.14,32.43
		c-7.19,0.58-14.41,0.66-21.6,1.33c-8.36,0.78-16.67,1.89-24.91,3.37c-20.31,3.65-39.84,9.99-58.98,17.61
		c-48.95,19.49-89.6,50.02-121.74,91.8c-16.24,21.11-29.97,43.69-39.1,68.86c-6.06,16.71-10.52,33.81-13.31,51.37
		c-2.14,13.41-3.65,26.87-4.07,40.44c-0.61,19.77,1.89,39.25,6.11,58.51c3.8,17.33,8.36,34.45,15.66,50.72
		c11.06,24.64,24.61,47.71,42.24,68.28c5.43,6.34,11.21,12.36,16.97,18.39c-1.17,0.51-1.79-0.53-2.51-1.02
		c-11.76-8.04-22.91-16.84-33.4-26.49c-12.14-11.17-23.53-23.05-33.74-36c-8.92-11.31-16.71-23.39-23.57-36.06
		c-5.99-11.08-11.93-22.23-16.06-34.15c-8.58-24.75-14.77-50.07-16.8-76.3c-0.22-2.86,0.14-5.79-0.75-8.6
		C117.27,688.29,117.27,682.62,117.27,676.95z"/>
	<path class="st2" d="M459.5,997.89c-0.05,0.13-0.06,0.27-0.03,0.41c-3.88,0-7.75,0-11.63,0c0-0.13-0.01-0.25-0.01-0.38
		C451.72,997.92,455.61,997.9,459.5,997.89z"/>
	<path class="st3" d="M447.83,997.93c0,0.13,0.01,0.25,0.01,0.38c-2.68,0-5.37,0-8.05,0c0.02-0.14,0.01-0.27-0.02-0.41
		C442.45,997.91,445.14,997.92,447.83,997.93z"/>
	<path class="st4" d="M248.28,916.41c-1.03-0.9-2.07-1.79-3.1-2.69c-0.02-0.28-0.17-0.42-0.45-0.43c0,0,0.01,0.01,0.01,0.01
		c-0.04-0.38-0.32-0.55-0.64-0.68c0,0,0-0.02,0-0.02c-5.76-6.04-11.54-12.05-16.97-18.39c-17.62-20.57-31.18-43.64-42.24-68.28
		c-7.3-16.27-11.86-33.39-15.66-50.72c-4.22-19.25-6.73-38.74-6.11-58.51c0.42-13.57,1.93-27.03,4.07-40.44
		c2.8-17.56,7.25-34.66,13.31-51.37c9.13-25.17,22.86-47.75,39.1-68.86c32.14-41.78,72.79-72.31,121.74-91.8
		c19.14-7.62,38.67-13.96,58.98-17.61c8.25-1.48,16.55-2.59,24.91-3.37c7.19-0.67,14.41-0.75,21.6-1.33
		c0.06,0.07,0.13,0.12,0.21,0.16c-0.03,0.89-0.08,1.78-0.08,2.68c0,37.28,0,74.57,0,111.85c0,4.25,0,4.24-4.2,3.26
		c-0.72-0.17-1.47-0.21-2.2-0.38c-16.54-3.86-33.27-4.97-50.17-3.32c-17.18,1.68-33.46,6.3-48.49,14.96
		c-9.94,5.73-18.69,13.03-27.13,20.72c-14.14,12.89-25.39,27.85-32.13,45.9c-5.46,14.6-9.16,29.57-8.29,45.35
		c0.42,7.59,1.17,15.14,2.59,22.62c5.14,27.21,17.33,50.54,37.96,69.25c9.06,8.22,19.24,14.75,30.2,20.11
		c0.42,0.42,0.85,0.84,1.27,1.25c5.28,7.29,11.55,13.69,18.59,19.19c20.49,16.02,43.32,27.04,69.19,31.06
		c13.83,2.15,27.65,1.52,41.35-1.26c15.76-3.2,31.15-7.63,45.39-15.24c22.59-12.06,39.15-30.08,50.89-52.69
		c6.37-12.27,10.43-25.21,12.11-38.97c1.25-10.24,1.4-20.51,1.43-30.79c0.08-32,0.05-64,0.05-96c0-163.2,0-326.41,0-489.61
		c0-3.2,0-3.2,3.17-3.2c36.31,0,72.61,0,108.92,0c0.82,0,1.64-0.04,2.45-0.06c0.07,0.07,0.16,0.13,0.25,0.18
		c0.88,6.36,2.49,12.55,4.24,18.71c8.56,30,23.6,56.48,44.09,79.85c13.38,15.26,29.04,27.97,45.88,39.24
		c1.02,0.68,1.92,1.64,3.25,1.8c0,0-0.03-0.03-0.03-0.03c-0.05,0.38,0.22,0.43,0.49,0.48c0.51,0.44,1.02,0.88,1.53,1.32
		c0.08,0.31,0.24,0.54,0.59,0.56c0,0-0.02-0.02-0.02-0.02c0.05,0.29,0.2,0.46,0.51,0.44c0,0-0.04-0.03-0.04-0.03
		c0.04,0.32,0.22,0.46,0.54,0.42c0,0-0.02-0.02-0.02-0.02c0.19,0.3,0.33,0.66,0.58,0.9c5.64,5.64,11.58,10.94,17.71,16.02
		c20.76,17.2,43.88,30.18,69.43,38.79c9.2,3.1,18.43,6.06,27.94,8.05c0.05,0.1,0.11,0.19,0.2,0.27c-0.02,0.82-0.06,1.64-0.06,2.46
		c0,37.37-0.02,74.74,0.04,112.11c0,2.01-0.22,2.84-2.59,2.69c-13.97-0.85-27.91-1.96-41.82-3.54c-13.61-1.55-27.2-3.3-40.57-6.29
		c-44.69-10-86.91-26.07-125.25-51.56c-2.76-1.83-5.63-3.51-8.8-5.48c0,1.26,0,2.05,0,2.85c0,96.44-0.09,192.89,0.07,289.33
		c0.03,20.33-0.94,40.49-4.58,60.52c-3.38,18.6-8.05,36.81-15.06,54.37c-12.67,31.75-31.52,59.59-54.26,84.89
		c-11.5,12.8-24.64,23.82-38.42,34.09c-18.29,13.64-37.86,25.15-58.68,34.45c-26.44,11.81-54.08,19.32-82.88,22.47
		c-15.12,1.65-30.26,2.47-45.48,2.16c-17.48-0.36-34.75-2.58-51.83-6.12c-34.49-7.15-67.1-19.19-97.02-38.04
		C249.39,916.73,248.97,916.19,248.28,916.41z"/>
	<path class="st5" d="M345.09,795.09c-10.96-5.36-21.14-11.89-30.2-20.11c-20.63-18.71-32.82-42.04-37.96-69.25
		c-1.41-7.48-2.16-15.03-2.59-22.62c-0.88-15.78,2.83-30.75,8.29-45.35c6.75-18.05,17.99-33.01,32.13-45.9
		c8.44-7.69,17.19-14.99,27.13-20.72c15.03-8.66,31.31-13.28,48.49-14.96c16.9-1.65,33.63-0.54,50.17,3.32
		c0.72,0.17,1.47,0.21,2.2,0.38c4.21,0.98,4.2,0.99,4.2-3.26c0-37.28,0-74.57,0-111.85c0-0.89,0.05-1.78,0.08-2.68
		c10.81-0.43,21.6-0.05,32.36,1.03c3.7,0.37,7.39,0.91,11.1,1.26c1.66,0.16,2.15,0.82,2.15,2.52c-0.07,19.02-0.04,38.03-0.04,57.05
		c0,30.2,0,60.41,0,90.61c0,3.32,0.01,3.28-3.34,2.45c-22.54-5.57-45.22-6.56-68.02-1.83c-19.45,4.03-36.54,12.78-51.72,25.59
		c-12.39,10.45-23.74,21.74-32.27,35.64c-8.34,13.6-13,28.52-15.96,44.1c-2.76,14.51-1.12,28.84,1.59,43.08
		c3.48,18.32,10.46,35.24,21.56,50.34C344.71,794.29,344.88,794.7,345.09,795.09z"/>
	<path class="st6" d="M248.28,916.41c0.69-0.22,1.11,0.32,1.58,0.62c29.92,18.85,62.53,30.89,97.02,38.04
		c17.08,3.54,34.35,5.76,51.83,6.12c15.21,0.31,30.36-0.51,45.48-2.16c28.8-3.15,56.44-10.66,82.88-22.47
		c20.82-9.3,40.38-20.81,58.68-34.45c13.78-10.27,26.92-21.29,38.42-34.09c22.73-25.3,41.58-53.15,54.26-84.89
		c7.01-17.56,11.69-35.77,15.06-54.37c3.64-20.03,4.61-40.2,4.58-60.52c-0.17-96.44-0.07-192.89-0.07-289.33c0-0.79,0-1.59,0-2.85
		c3.17,1.97,6.04,3.65,8.8,5.48c38.34,25.48,80.56,41.55,125.25,51.56c13.37,2.99,26.95,4.74,40.57,6.29
		c13.91,1.58,27.85,2.69,41.82,3.54c2.37,0.14,2.59-0.68,2.59-2.69c-0.06-37.37-0.04-74.74-0.04-112.11c0-0.82,0.04-1.64,0.06-2.46
		c9.08,1.66,18.15,3.44,27.38,4.13c5.43,0.41,10.87,0.54,16.31,0.19c1.57-0.1,2,0.33,2,1.92c-0.04,48.63-0.05,97.26,0.01,145.9
		c0,2.08-0.82,1.9-2.34,1.84c-17.43-0.73-34.77-2.41-52.06-4.63c-34.34-4.42-67.46-13.36-99.38-26.77
		c-13.6-5.72-27.1-11.67-39.67-19.5c-7.72-4.8-15.41-9.64-23.12-14.45c-0.62-0.38-1.26-0.71-2.05-1.15
		c-0.49,1.04-0.29,2.01-0.29,2.92c-0.01,98.9-0.1,197.81,0.06,296.71c0.04,24.78-3.26,49.04-8.92,73.08
		c-8.99,38.16-27.06,71.73-51.06,102.41c-24,30.67-53.83,54.29-87.59,73.23c-26.74,15-55.17,25.36-85.28,31.12
		c-17.02,3.25-34.2,4.87-51.51,5.27c-3.89,0.01-7.78,0.02-11.67,0.03c-2.69-0.01-5.37-0.02-8.06-0.03
		c-49.05-2.85-95.29-15.5-137.88-40.32C282.3,946.17,264.54,932.22,248.28,916.41z"/>
	<path class="st7" d="M797.63,258.54c-1.32-0.16-2.23-1.11-3.25-1.8c-16.84-11.27-32.5-23.97-45.88-39.24
		c-20.49-23.37-35.53-49.84-44.09-79.85c-1.76-6.16-3.37-12.35-4.24-18.71c0.59-0.05,1.18-0.16,1.77-0.16
		c13.18-0.01,26.37,0.02,39.55-0.04c1.67-0.01,2.11,0.4,2.04,2.11c-1.28,31.42,6.39,60.79,20.46,88.67
		c8.58,16.99,19.37,32.47,31.96,46.71C796.56,256.95,797.39,257.54,797.63,258.54z"/>
	<path class="st8" d="M916.84,325.41c-9.51-1.99-18.74-4.95-27.94-8.05c-25.56-8.61-48.68-21.59-69.43-38.79
		c-6.13-5.08-12.08-10.38-17.71-16.02c-0.25-0.25-0.39-0.6-0.58-0.9c3.02,0.7,5.41,2.66,8.06,4.08
		c15.22,8.16,31.19,14.41,47.77,19.12c9.29,2.64,18.64,5.15,28.24,6.45c9.71,1.32,19.43,2.82,29.3,1.72
		c1.15-0.13,2.47-0.4,2.46,1.56C916.92,304.86,916.88,315.14,916.84,325.41z"/>
	<path class="st8" d="M800.22,260.87c-0.35-0.02-0.52-0.25-0.59-0.56C800.02,260.29,800.22,260.47,800.22,260.87z"/>
	<path class="st7" d="M798.09,258.99c-0.27-0.05-0.55-0.1-0.49-0.48C797.94,258.49,798.07,258.68,798.09,258.99z"/>
	<path class="st8" d="M800.71,261.29c-0.31,0.02-0.46-0.15-0.51-0.44C800.53,260.8,800.71,260.93,800.71,261.29z"/>
	<path class="st8" d="M801.2,261.67c-0.32,0.04-0.5-0.1-0.54-0.42C801,261.19,801.21,261.3,801.2,261.67z"/>
	<path class="st1" d="M244.1,912.62c0.32,0.13,0.59,0.3,0.64,0.68C244.31,913.28,243.88,913.25,244.1,912.62z"/>
	<path class="st1" d="M244.73,913.3c0.27,0.01,0.43,0.15,0.45,0.43C244.91,913.71,244.75,913.58,244.73,913.3z"/>
</g>
</svg>
