<?xml version="1.0" standalone="no"?>
<!DOCTYPE svg PUBLIC "-//W3C//DTD SVG 20010904//EN"
 "http://www.w3.org/TR/2001/REC-SVG-20010904/DTD/svg10.dtd">
<svg version="1.0" xmlns="http://www.w3.org/2000/svg"
 width="1285.000000pt" height="1285.000000pt" viewBox="0 0 1285.000000 1285.000000"
 preserveAspectRatio="xMidYMid meet">

<g transform="translate(0.000000,1285.000000) scale(0.100000,-0.100000)"
fill="#000000" stroke="none">
<path d="M5997 11828 c196 -441 319 -877 380 -1343 28 -217 25 -721 -5 -945
-93 -683 -289 -1235 -812 -2280 -318 -636 -476 -975 -605 -1300 -176 -442
-281 -830 -337 -1244 -30 -215 -32 -726 -5 -931 103 -775 382 -1482 909 -2299
107 -166 368 -539 374 -533 2 1 -5 36 -16 77 -217 855 -180 1664 113 2465 123
339 329 762 617 1270 367 649 481 861 600 1115 400 855 529 1600 419 2422
-123 928 -569 1973 -1337 3138 -155 236 -330 490 -337 490 -2 0 17 -46 42
-102z"/>
<path d="M7377 5608 c-22 -408 -155 -839 -400 -1298 -66 -125 -147 -261 -505
-851 -335 -553 -486 -934 -533 -1338 -19 -167 -7 -476 25 -642 50 -264 136
-515 268 -779 l72 -145 7 141 c25 482 186 907 520 1376 38 54 169 225 290 380
341 438 504 697 605 960 193 505 159 1093 -103 1778 -55 145 -215 506 -231
522 -5 5 -12 -41 -15 -104z"/>
</g>
</svg>
