<?xml version="1.0" encoding="utf-8"?>
<!-- Generator: Adobe Illustrator 24.0.0, SVG Export Plug-In . SVG Version: 6.00 Build 0)  -->
<svg version="1.1" id="Layer_1" xmlns="http://www.w3.org/2000/svg" xmlns:xlink="http://www.w3.org/1999/xlink" x="0px" y="0px"
	 viewBox="0 0 1080 1080" style="enable-background:new 0 0 1080 1080;" xml:space="preserve">
<style type="text/css">
	.st0{fill:#FFFFFF;}
</style>
<rect width="1080" height="1080"/>
<g>
	<path class="st0" d="M491.14,620.07c-70.7,82.14-140.33,161.35-207.74,242.4c-19.52,23.46-39.61,36.87-70.27,31.4
		c-4.82-0.86-9.84-0.55-18.95-0.98c91.26-105.94,180.27-209.28,270.01-313.46c-89.94-130.75-179.21-260.53-270.85-393.75
		c69.62,0,134.58-0.45,199.51,0.71c6.37,0.11,14.02,9.15,18.62,15.76c51.82,74.43,103.16,149.19,154.64,223.86
		c4.03,5.84,8.14,11.63,13.47,19.24c35.9-41.35,70.92-81.55,105.78-121.88c34-39.33,68.61-78.17,101.35-118.53
		c12.47-15.37,25.71-21.87,44.84-19.44c9.23,1.17,18.73,0.2,34.02,0.2c-88.22,102.5-173.28,201.32-258.44,300.27
		c93.1,135.24,185.48,269.44,279.54,406.08c-7.75,0.76-13.06,1.73-18.37,1.74c-54.94,0.11-109.9-0.59-164.83,0.47
		c-16.46,0.32-26.21-4.53-35.58-18.42c-54.02-80.01-109.17-159.25-163.99-238.72C500.22,631.71,496.12,626.67,491.14,620.07z
		 M799.19,849.63c-0.47-4.18-0.16-5.88-0.85-6.87c-140.15-200.23-280.37-400.41-420.7-600.51c-2.36-3.36-6.11-8.09-9.29-8.16
		c-28.63-0.64-57.28-0.37-89.66-0.37c31.03,44.32,59.11,84.41,87.17,124.5C477.07,517.09,588.19,676.02,699.8,834.61
		c4.7,6.67,13.77,13.82,21.25,14.34C746.55,850.72,772.26,849.63,799.19,849.63z"/>
</g>
</svg>
